<svg xmlns="http://www.w3.org/2000/svg" viewBox="0 0 25.07045 25">
   <defs id="defs407">
      <style id="style40">.aecls-1{fill:#a5cd39}.aecls-1,.aecls-2,.aecls-3{fill-rule:evenodd}.aecls-2{fill:#231f20}.aecls-3{fill:#ec1c24}</style>
   </defs>
   <defs id="defs42">
      <style id="style430">.aecls-1{fill:#a5cd39}.aecls-1,.aecls-2,.aecls-3{fill-rule:evenodd}.aecls-2{fill:#231f20}.aecls-3{fill:#ec1c24}</style>
   </defs>
   <g id="ae_Group_">
      <path style="fill:#a5cd39;fill-rule:evenodd" id="ae_Path_" class="aecls-1" d="M 3.747,0 H 21.29 a 3.774,3.774 0 0 1 3.78,3.71 V 21.254 A 3.78,3.78 0 0 1 21.29,25 H 3.747 A 3.75,3.75 0 0 1 0,21.254 V 3.71 A 3.743,3.743 0 0 1 3.747,0 Z" />
      <g id="ae_Group_2">
         <path style="fill:#231f20;fill-rule:evenodd" id="ae_Path_2" class="aecls-2" d="m 13.11,3.134 h -1.996 v 5.39 a 3.626,3.626 0 0 1 1.996,0.61 z" />
         <path style="fill:#ec1c24;fill-rule:evenodd" id="ae_Compound_Path_" class="aecls-3" d="m 11.64,18.26 a 2.173,2.173 0 0 1 -2.032,1.12 2.542,2.542 0 0 1 -1.61,-0.525 3.375,3.375 0 0 1 -1.016,-1.47 5.66,5.66 0 0 1 -0.35,-1.89 5.866,5.866 0 0 1 0.35,-1.927 3.08,3.08 0 0 1 1.016,-1.436 2.38,2.38 0 0 1 1.61,-0.56 2.348,2.348 0 0 1 1.54,0.525 3.494,3.494 0 0 1 0.91,1.436 6.796,6.796 0 0 1 0.28,1.96 5.143,5.143 0 0 1 -0.7,2.767 z m 3.536,-5.883 a 5.505,5.505 0 0 0 -1.75,-2.38 4.38,4.38 0 0 0 -2.767,-0.91 5.03,5.03 0 0 0 -2.172,0.454 3.838,3.838 0 0 0 -1.61,1.367 H 6.841 V 3.134 H 3.551 V 21.83 c 0,0 3.01,0.35 3.115,-1.575 v -0.316 l 0.035,0.14 a 4.237,4.237 0 0 0 0.35,0.56 3.677,3.677 0 0 0 1.226,0.84 5.847,5.847 0 0 0 2.38,0.385 4.356,4.356 0 0 0 2.767,-0.875 5.72,5.72 0 0 0 1.75,-2.38 8.788,8.788 0 0 0 0.596,-3.117 8.644,8.644 0 0 0 -0.594,-3.117 z" />
         <path style="fill:#231f20;fill-rule:evenodd" id="ae_Path_3" class="aecls-2" d="M 20.924,12.377 A 4.93,4.93 0 0 0 14.236,9.541 Q 14.058,9.627 13.89,9.725 a 6.655,6.655 0 0 1 1.062,1.218 3.183,3.183 0 0 1 1.066,-0.17 c 2.537,0 3.29,2.678 3.29,4.725 0,2.07 -0.804,4.684 -3.29,4.684 a 3.29,3.29 0 0 1 -1.15,-0.193 6.536,6.536 0 0 1 -1.22,1.3 c 0.116,0.065 0.24,0.13 0.378,0.194 a 5.846,5.846 0 0 0 2.38,0.386 4.356,4.356 0 0 0 2.767,-0.875 5.72,5.72 0 0 0 1.75,-2.38 8.788,8.788 0 0 0 0.596,-3.116 8.644,8.644 0 0 0 -0.596,-3.117 z" />
      </g>
   </g>
</svg>